<svg version="1.1" id="Layer_1" xmlns="http://www.w3.org/2000/svg" xmlns:xlink="http://www.w3.org/1999/xlink" x="0px" y="0px"
	 width="100%" viewBox="0 0 1024 1024" enable-background="new 0 0 1024 1024" xml:space="preserve">
<path fill="#000000" opacity="1.000000" stroke="none" 
	d="
M501.000000,1025.000000 
	C334.000000,1025.000000 167.500000,1025.000000 1.000000,1025.000000 
	C1.000000,683.666687 1.000000,342.333344 1.000000,1.000000 
	C342.333344,1.000000 683.666687,1.000000 1025.000000,1.000000 
	C1025.000000,342.333344 1025.000000,683.666687 1025.000000,1025.000000 
	C850.500000,1025.000000 676.000000,1025.000000 501.000000,1025.000000 
M750.992676,448.016693 
	C750.992676,448.016693 750.894043,448.105865 751.038086,448.725983 
	C751.663757,449.517517 752.289490,450.309082 753.286133,451.430176 
	C753.541138,451.647064 753.826111,451.812378 754.044312,452.593414 
	C754.574768,453.453400 755.105286,454.313354 755.725220,455.242615 
	C755.725220,455.242615 755.838379,455.245575 756.070312,455.672211 
	C756.281799,455.934845 756.551270,456.106140 757.257568,456.738312 
	C764.628723,461.952606 771.999817,467.166901 779.422974,472.417999 
	C776.659790,474.088928 773.675293,475.943634 770.643677,477.717712 
	C760.614441,483.586700 752.575500,491.406738 748.127930,502.249176 
	C744.554565,510.960632 742.832275,520.142517 743.349548,529.773926 
	C743.349548,529.773926 743.039917,529.945496 742.364441,530.278564 
	C742.257629,531.503723 742.150757,532.728882 741.963684,534.644897 
	C741.986572,535.107300 742.009399,535.569641 741.980835,536.830322 
	C742.309692,538.067017 742.638489,539.303650 742.876892,540.488098 
	C742.876892,540.488098 742.727356,540.543457 742.288391,541.456055 
	C742.233032,559.590393 742.177307,577.724792 742.122864,595.859131 
	C742.118835,597.185181 742.359802,598.561401 742.089539,599.829590 
	C738.602539,616.192139 725.640320,625.481323 709.444153,625.971008 
	C692.898071,626.471375 689.237244,641.087952 693.620544,652.988525 
	C695.975342,659.381897 700.356567,665.001465 703.355530,671.196655 
	C704.826233,674.234863 705.229797,677.789490 706.384949,681.187683 
	C706.384949,681.187683 706.662781,681.218262 706.686646,682.083252 
	C706.649414,690.301331 706.612183,698.519470 706.355957,706.764282 
	C706.355957,706.764282 706.153137,706.850952 705.371887,707.249939 
	C704.602539,712.473267 703.145203,717.707520 703.227844,722.917297 
	C703.346741,730.409668 701.241211,738.982910 710.562744,744.283936 
	C713.947205,745.890930 717.279541,746.932312 720.608521,742.945190 
	C721.374695,742.269958 722.140869,741.594666 723.600220,740.675720 
	C727.574768,735.533813 728.313843,728.349670 725.391296,723.001526 
	C725.565247,722.213745 725.739197,721.425903 725.959412,720.002686 
	C725.112732,716.370789 724.266052,712.738831 723.548462,708.364014 
	C723.643738,707.616638 723.739075,706.869324 724.011292,705.178345 
	C723.997375,701.719482 724.082825,698.256653 723.947266,694.802551 
	C723.716431,688.920654 723.346558,683.044250 723.739746,676.755676 
	C724.089111,670.703613 725.670715,665.288025 730.472534,661.024109 
	C733.495789,658.339478 736.924927,656.520386 740.099121,659.113281 
	C742.504700,661.078308 744.489319,664.638428 744.915039,667.729309 
	C745.894104,674.837646 745.708069,682.099426 746.193726,689.285522 
	C746.464905,693.297974 749.159607,695.461487 752.909119,695.787842 
	C755.838013,696.042664 759.471313,696.690308 760.458496,691.941467 
	C760.497681,691.590637 760.536865,691.239807 760.442627,690.391174 
	C760.653870,689.948425 760.865173,689.505737 761.437988,688.969360 
	C761.544189,688.653870 761.650330,688.338318 761.580383,687.321167 
	C761.483459,686.605896 761.386475,685.890686 761.936340,684.753845 
	C761.966614,675.884216 761.996887,667.014526 762.716431,657.717407 
	C764.291321,653.535400 765.328003,649.035645 767.565247,645.244507 
	C771.065369,639.313477 775.777649,634.095947 779.255676,628.154297 
	C785.026001,618.296570 787.624146,607.559814 786.319275,596.025024 
	C786.159851,594.615540 786.792419,593.116455 787.756958,591.255493 
	C787.801636,570.573853 787.846252,549.892212 787.948242,528.347656 
	C787.902710,525.569031 787.857178,522.790344 788.168823,519.349915 
	C792.430054,504.877319 801.248901,495.216705 816.419006,491.762848 
	C819.615601,491.035095 822.703735,489.052002 825.394592,487.047119 
	C830.663147,483.121704 833.697388,474.788544 831.466980,467.121124 
	C829.072449,458.889893 822.439087,452.931641 815.709045,452.118408 
	C809.274658,451.340881 803.444580,448.558960 798.458069,444.062408 
	C789.142456,435.662140 787.335083,424.342346 786.793823,412.940399 
	C786.170959,399.821899 786.778687,386.645111 786.846375,373.493652 
	C786.899475,363.177277 788.139282,352.690979 786.703003,342.585571 
	C784.715698,328.602783 779.870056,315.525299 770.625122,304.010101 
	C763.286133,294.868835 754.316101,288.869324 744.091614,284.002899 
	C733.496399,278.960022 722.215088,278.314362 710.753662,278.069763 
	C698.345337,277.804932 689.852051,290.853119 694.669006,302.404785 
	C698.440063,311.448029 706.303223,311.834290 713.959290,312.951538 
	C724.157166,314.439728 733.353210,317.375000 738.036072,327.729065 
	C739.421021,330.791382 740.682617,333.909515 742.348633,337.178436 
	C742.348633,337.178436 742.718445,337.302216 742.710938,338.088898 
	C742.609802,339.388855 742.508667,340.688782 742.159790,342.562164 
	C742.132446,343.399658 742.105103,344.237183 741.956360,345.993927 
	C741.916687,369.213745 741.860168,392.433563 741.888672,415.653290 
	C741.890076,416.786743 742.637268,417.919250 743.429810,419.128448 
	C743.429810,419.128448 743.821106,419.211426 743.817871,419.965088 
	C743.830566,420.969818 743.843201,421.974518 743.456482,423.515564 
	C743.888977,424.765808 744.321533,426.016022 744.752258,427.942993 
	C744.715698,428.618225 744.679199,429.293488 744.356628,430.577972 
	C745.568115,434.389374 746.779602,438.200775 748.543762,442.307678 
	C749.262939,443.779205 749.982178,445.250702 750.304993,447.036774 
	C750.502014,447.391235 750.699036,447.745667 750.992676,448.016693 
M272.232025,702.592468 
	C273.161072,703.385742 274.090118,704.179077 275.335480,705.595520 
	C279.776001,707.016602 283.500092,706.168884 286.589813,702.033325 
	C286.672668,701.704224 286.755493,701.375061 286.556427,700.445740 
	C286.454132,700.016785 286.351837,699.587769 286.864746,698.806702 
	C287.160767,697.481934 287.456787,696.157227 287.695404,694.210754 
	C287.674774,693.795227 287.654144,693.379761 288.302948,692.434814 
	C288.529907,686.949402 288.756866,681.463989 289.009430,675.231628 
	C287.959473,670.380920 291.083832,665.220337 295.749969,664.098267 
	C299.818512,663.119812 304.012665,666.159424 305.019653,671.381836 
	C305.797028,675.413513 306.306061,679.581177 306.237488,683.676697 
	C305.990814,698.408691 305.484741,713.136902 304.999664,727.864014 
	C304.816864,733.413574 304.895386,739.032471 304.013672,744.483643 
	C302.777435,752.126587 301.124786,759.615967 302.219238,767.481995 
	C302.871216,772.167725 307.208344,778.171265 311.878174,778.978943 
	C322.145111,780.754700 327.278168,775.770813 327.725281,764.870789 
	C328.175964,753.883728 325.839508,742.782349 324.739655,730.827393 
	C324.788849,711.957275 324.838013,693.087158 324.863220,673.563416 
	C324.510223,673.049011 324.157196,672.534607 324.190582,671.314453 
	C326.433746,665.039246 328.037506,658.436462 331.050293,652.555481 
	C337.772522,639.433533 330.495087,626.633240 315.933563,626.285645 
	C306.954865,626.071350 298.786072,623.200378 292.105042,616.751160 
	C284.795349,609.695068 282.968201,600.609985 282.870483,591.146667 
	C282.664093,571.151672 283.257874,551.143555 282.780701,531.158569 
	C282.583771,522.910645 280.853668,514.628357 279.130524,506.508179 
	C277.444122,498.561157 272.818634,492.260925 266.792450,486.675598 
	C261.410736,481.687622 256.259460,476.751953 248.929520,474.769379 
	C247.780716,474.458618 246.918060,473.089935 245.751114,472.058472 
	C252.234543,468.037750 258.570068,465.058929 263.757141,460.710205 
	C278.133545,448.657257 282.323059,431.859680 282.848358,414.152130 
	C283.548950,390.536621 283.448517,366.894440 283.495483,343.263336 
	C283.536072,322.856049 297.320251,314.521545 311.544373,313.073639 
	C317.790863,312.437744 323.039032,311.664581 327.747986,306.680145 
	C333.179199,300.931152 332.559631,294.752563 330.774384,288.523743 
	C329.276642,283.298126 325.275543,279.662720 319.410431,279.418976 
	C311.909332,279.107269 304.196503,278.042236 296.936310,279.333618 
	C288.766113,280.786804 280.459961,283.518555 273.197296,287.492889 
	C264.880310,292.044189 257.805725,298.651947 251.973190,306.479248 
	C243.285919,318.137604 238.893875,331.346741 238.145859,345.546783 
	C237.463394,358.502869 238.574539,371.545258 238.153885,384.525574 
	C237.685242,398.987091 240.325439,413.627136 236.046722,427.897156 
	C232.897079,438.401550 227.256042,446.616577 216.130722,450.062927 
	C211.579361,451.472870 206.900513,452.928894 202.814301,455.289429 
	C193.743835,460.529388 190.816467,475.246490 197.248123,483.142822 
	C200.335159,486.932861 205.194946,489.905457 209.850586,491.656647 
	C218.650558,494.966766 227.248138,498.058533 232.006058,507.561066 
	C232.301056,507.767517 232.596054,507.973969 232.968857,508.607849 
	C232.968857,508.607849 232.900955,509.037018 232.941132,509.609406 
	C233.247864,509.812073 233.554581,510.014740 234.028564,510.588776 
	C234.028564,510.588776 234.019669,510.995972 234.044540,511.550110 
	C234.348129,511.729523 234.651733,511.908936 235.237503,512.484314 
	C235.237503,512.484314 235.364410,512.953613 235.342361,513.402832 
	C235.468414,513.708496 235.694473,513.889160 236.318314,514.395569 
	C236.431183,514.919678 236.544052,515.443787 236.387619,516.409790 
	C236.818909,517.052063 237.250214,517.694275 237.715500,519.076050 
	C237.613068,520.052246 237.510635,521.028442 237.204544,522.484314 
	C237.688965,523.109680 238.173386,523.734985 238.629364,525.250305 
	C238.444504,532.534546 238.259644,539.818787 237.740814,547.210388 
	C237.854675,547.430969 237.968552,547.651611 238.347916,548.270508 
	C238.456207,548.734497 238.564499,549.198486 237.999893,550.093933 
	C237.681839,550.996887 237.096161,551.896851 237.086334,552.803162 
	C236.962051,564.256531 236.875793,575.711060 236.930435,587.164490 
	C236.935669,588.261414 237.951111,589.353394 238.585388,591.282898 
	C238.809464,595.969604 239.094711,600.654297 239.245453,605.343323 
	C239.611694,616.736389 244.627090,626.556946 250.423004,635.816406 
	C255.684402,644.221985 262.127441,651.887939 268.011841,660.617432 
	C268.598114,661.499695 269.184387,662.381958 269.696136,663.825928 
	C269.668915,664.202637 269.641663,664.579346 269.279053,665.519470 
	C269.221008,666.383179 269.162994,667.246887 269.040588,669.027588 
	C268.995819,677.395325 268.951080,685.763062 268.803833,694.890991 
	C269.874542,697.255066 270.945251,699.619141 272.002441,702.000000 
	C272.002441,702.000000 272.020966,701.982056 272.232025,702.592468 
M583.127625,291.345947 
	C575.982117,291.473816 568.833679,291.778381 561.692139,291.662109 
	C557.525940,291.594330 550.510498,294.819550 549.150391,298.559174 
	C546.889282,304.776154 544.907898,311.104553 543.053833,317.457520 
	C540.504089,326.194092 538.302795,335.032623 535.736206,343.763947 
	C531.567139,357.946472 527.179810,372.064728 522.970703,386.235687 
	C520.885620,393.255768 519.157593,400.384460 516.974731,407.372406 
	C513.427795,418.727112 509.415558,429.939514 506.009979,441.334564 
	C501.663574,455.877655 497.873138,470.586487 493.565338,485.141693 
	C489.924927,497.442017 485.767517,509.588531 482.060211,521.869995 
	C477.958862,535.456787 474.178101,549.140076 470.128326,562.742859 
	C466.825653,573.836121 463.207825,584.836243 459.957031,595.944153 
	C456.381561,608.161255 452.931458,620.419067 449.695221,632.729736 
	C448.141327,638.640747 446.364990,644.382446 452.222382,649.834412 
	C459.898529,656.979309 462.035248,666.549011 461.241913,676.905579 
	C460.861023,681.877808 460.740540,686.921265 461.121765,691.884827 
	C461.439667,696.023926 461.894928,700.559937 466.854706,702.294861 
	C471.163391,703.802002 475.592865,703.311340 477.818817,699.348572 
	C479.663635,696.064331 479.738953,691.786011 481.300293,687.448425 
	C481.079987,680.313721 480.859650,673.179077 481.057800,665.387878 
	C482.714844,661.732178 484.096497,657.916626 486.101562,654.462952 
	C488.389374,650.522217 492.107239,647.231506 493.661926,643.080811 
	C497.527100,632.761841 500.728546,622.176514 503.812622,611.586365 
	C510.217468,589.593079 516.331848,567.515503 522.646484,545.495667 
	C526.770081,531.116394 530.998230,516.766724 535.246338,502.423615 
	C541.575317,481.054749 548.014465,459.718506 554.311096,438.340240 
	C560.404236,417.652863 566.325073,396.914795 572.420105,376.228027 
	C576.549255,362.213470 580.904785,348.265656 585.052490,334.256470 
	C587.770935,325.074554 590.513977,315.889954 592.833435,306.603485 
	C594.262085,300.883728 591.257263,292.443054 584.842163,291.488647 
	C584.535095,291.368774 584.228027,291.248932 583.127625,291.345947 
z"/>
<path fill="#4D5350" opacity="1.000000" stroke="none" 
	d="
M324.724243,731.731018 
	C325.839508,742.782349 328.175964,753.883728 327.725281,764.870789 
	C327.278168,775.770813 322.145111,780.754700 311.878174,778.978943 
	C307.208344,778.171265 302.871216,772.167725 302.219238,767.481995 
	C301.124786,759.615967 302.777435,752.126587 304.013672,744.483643 
	C304.895386,739.032471 304.816864,733.413574 304.999664,727.864014 
	C305.484741,713.136902 305.990814,698.408691 306.237488,683.676697 
	C306.306061,679.581177 305.797028,675.413513 305.019653,671.381836 
	C304.012665,666.159424 299.818512,663.119812 295.749969,664.098267 
	C291.083832,665.220337 287.959473,670.380920 288.753235,675.517944 
	C288.047089,675.921814 287.201935,676.046387 287.203857,676.156128 
	C287.301575,681.759583 287.471405,687.361877 287.633545,692.964233 
	C287.654144,693.379761 287.674774,693.795227 287.433655,694.710938 
	C286.864471,696.527039 286.557007,697.842957 286.249542,699.158813 
	C286.351837,699.587769 286.454132,700.016785 286.568390,701.036499 
	C286.461884,701.803772 286.343414,701.980286 286.224945,702.156860 
	C283.500092,706.168884 279.776001,707.016602 275.134308,704.955261 
	C273.962402,703.537354 272.991669,702.759705 272.020935,701.982056 
	C272.020966,701.982056 272.002441,702.000000 271.996155,701.565979 
	C271.656281,691.090820 271.386322,681.046814 270.936035,671.010925 
	C270.844788,668.976929 270.072632,666.973572 269.614410,664.956055 
	C269.641663,664.579346 269.668915,664.202637 269.781311,663.238037 
	C269.260834,661.726685 268.655212,660.803345 268.049561,659.879944 
	C262.127441,651.887939 255.684402,644.221985 250.423004,635.816406 
	C244.627090,626.556946 239.611694,616.736389 239.245453,605.343323 
	C239.094711,600.654297 238.809464,595.969604 238.679169,590.370239 
	C238.739563,576.192505 238.706177,562.927490 238.672791,549.662476 
	C238.564499,549.198486 238.456207,548.734497 238.219940,547.879272 
	C238.091965,547.488098 238.074768,547.103027 238.074768,547.103027 
	C238.259644,539.818787 238.444504,532.534546 238.675735,524.438171 
	C238.284134,523.085571 237.846176,522.545105 237.408203,522.004639 
	C237.510635,521.028442 237.613068,520.052246 237.723907,518.359619 
	C237.373856,517.084778 237.015381,516.526306 236.656921,515.967896 
	C236.544052,515.443787 236.431183,514.919678 236.083374,513.989990 
	C235.714493,513.353088 235.553146,513.142822 235.364410,512.953613 
	C235.364410,512.953613 235.237503,512.484314 234.935669,512.108154 
	C234.410828,511.501862 234.206100,511.256531 234.019669,510.995972 
	C234.019669,510.995972 234.028564,510.588776 233.763062,510.224487 
	C233.298706,509.585785 233.099823,509.311401 232.900955,509.037018 
	C232.900955,509.037018 232.968857,508.607849 232.775589,508.201965 
	C232.363785,507.549561 232.171417,507.284088 232.005188,506.999634 
	C227.248138,498.058533 218.650558,494.966766 209.850586,491.656647 
	C205.194946,489.905457 200.335159,486.932861 197.248123,483.142822 
	C190.816467,475.246490 193.743835,460.529388 202.814301,455.289429 
	C206.900513,452.928894 211.579361,451.472870 216.130722,450.062927 
	C227.256042,446.616577 232.897079,438.401550 236.046722,427.897156 
	C240.325439,413.627136 237.685242,398.987091 238.153885,384.525574 
	C238.574539,371.545258 237.463394,358.502869 238.145859,345.546783 
	C238.893875,331.346741 243.285919,318.137604 251.973190,306.479248 
	C257.805725,298.651947 264.880310,292.044189 273.197296,287.492889 
	C280.459961,283.518555 288.766113,280.786804 296.936310,279.333618 
	C304.196503,278.042236 311.909332,279.107269 319.410431,279.418976 
	C325.275543,279.662720 329.276642,283.298126 330.774384,288.523743 
	C332.559631,294.752563 333.179199,300.931152 327.747986,306.680145 
	C323.039032,311.664581 317.790863,312.437744 311.544373,313.073639 
	C297.320251,314.521545 283.536072,322.856049 283.495483,343.263336 
	C283.448517,366.894440 283.548950,390.536621 282.848358,414.152130 
	C282.323059,431.859680 278.133545,448.657257 263.757141,460.710205 
	C258.570068,465.058929 252.234543,468.037750 245.751114,472.058472 
	C246.918060,473.089935 247.780716,474.458618 248.929520,474.769379 
	C256.259460,476.751953 261.410736,481.687622 266.792450,486.675598 
	C272.818634,492.260925 277.444122,498.561157 279.130524,506.508179 
	C280.853668,514.628357 282.583771,522.910645 282.780701,531.158569 
	C283.257874,551.143555 282.664093,571.151672 282.870483,591.146667 
	C282.968201,600.609985 284.795349,609.695068 292.105042,616.751160 
	C298.786072,623.200378 306.954865,626.071350 315.933563,626.285645 
	C330.495087,626.633240 337.772522,639.433533 331.050293,652.555481 
	C328.037506,658.436462 326.433746,665.039246 323.794617,672.019287 
	C323.256744,680.863098 323.038208,689.001648 322.991028,697.141235 
	C322.921173,709.190186 322.972961,721.239807 322.972961,734.488403 
	C323.778137,732.754395 324.042694,732.184692 324.437531,731.550354 
	C324.567841,731.485718 324.724243,731.731018 324.724243,731.731018 
z"/>
<path fill="#4E5350" opacity="1.000000" stroke="none" 
	d="
M761.076477,689.062988 
	C760.865173,689.505737 760.653870,689.948425 760.379395,690.930786 
	C760.233643,691.665466 760.151001,691.860535 760.068359,692.055542 
	C759.471313,696.690308 755.838013,696.042664 752.909119,695.787842 
	C749.159607,695.461487 746.464905,693.297974 746.193726,689.285522 
	C745.708069,682.099426 745.894104,674.837646 744.915039,667.729309 
	C744.489319,664.638428 742.504700,661.078308 740.099121,659.113281 
	C736.924927,656.520386 733.495789,658.339478 730.472534,661.024109 
	C725.670715,665.288025 724.089111,670.703613 723.290283,676.728027 
	C722.594727,676.682007 722.346008,676.639771 722.105103,676.667114 
	C722.061951,676.671936 722.028748,676.964355 722.029175,677.123901 
	C722.051758,685.528687 722.006775,693.934875 722.181335,702.336609 
	C722.207764,703.609253 723.257874,704.860718 723.834412,706.121948 
	C723.739075,706.869324 723.643738,707.616638 723.362915,709.082397 
	C724.089233,713.413269 725.001160,717.025696 725.913147,720.638123 
	C725.739197,721.425903 725.565247,722.213745 725.258179,723.871582 
	C724.385620,730.134277 723.646301,735.526794 722.906982,740.919373 
	C722.140869,741.594666 721.374695,742.269958 720.005798,743.065125 
	C716.248718,743.409546 713.094360,743.634033 709.940002,743.858521 
	C701.241211,738.982910 703.346741,730.409668 703.227844,722.917297 
	C703.145203,717.707520 704.602539,712.473267 705.774902,707.312317 
	C706.274536,707.804565 706.371155,708.234497 706.467712,708.664368 
	C706.587952,708.643799 706.708191,708.623230 706.828430,708.602661 
	C706.743958,707.980957 706.659485,707.359253 706.574951,706.737549 
	C706.612183,698.519470 706.649414,690.301331 706.742920,681.444519 
	C706.730225,680.554382 706.661377,680.302917 706.592529,680.051514 
	C706.433777,680.404480 706.275085,680.757446 706.116394,681.110413 
	C705.229797,677.789490 704.826233,674.234863 703.355530,671.196655 
	C700.356567,665.001465 695.975342,659.381897 693.620544,652.988525 
	C689.237244,641.087952 692.898071,626.471375 709.444153,625.971008 
	C725.640320,625.481323 738.602539,616.192139 742.089539,599.829590 
	C742.359802,598.561401 742.118835,597.185181 742.122864,595.859131 
	C742.177307,577.724792 742.233032,559.590393 742.554626,541.619385 
	C742.820862,557.284790 742.820862,572.786926 742.820862,588.289001 
	C743.108276,588.287354 743.395752,588.285706 743.683167,588.284058 
	C743.683167,568.741272 743.683167,549.198547 743.683167,529.655762 
	C742.832275,520.142517 744.554565,510.960632 748.127930,502.249176 
	C752.575500,491.406738 760.614441,483.586700 770.643677,477.717712 
	C773.675293,475.943634 776.659790,474.088928 779.422974,472.417999 
	C771.999817,467.166901 764.628723,461.952606 756.938721,456.260986 
	C756.401306,455.543549 756.140747,455.364197 755.838379,455.245575 
	C755.838379,455.245575 755.725220,455.242615 755.712402,454.860718 
	C755.180054,453.627930 754.660522,452.777008 754.140991,451.926086 
	C753.826111,451.812378 753.541138,451.647064 753.098389,450.911316 
	C752.238464,449.630280 751.566223,448.868073 750.894043,448.105865 
	C750.894043,448.105865 750.992676,448.016693 750.888794,447.714661 
	C750.757019,447.182526 750.729187,446.952362 750.701355,446.722229 
	C749.982178,445.250702 749.262939,443.779205 748.265381,441.742401 
	C746.872253,437.440979 745.757507,433.704834 744.642700,429.968719 
	C744.679199,429.293488 744.715698,428.618225 744.817749,427.220490 
	C744.540771,425.325073 744.198303,424.152161 743.855896,422.979248 
	C743.843201,421.974518 743.830566,420.969818 743.868774,419.104187 
	C743.940369,394.469116 743.992310,370.694855 743.913818,346.920959 
	C743.908447,345.275238 742.932251,343.632751 742.407593,341.988739 
	C742.508667,340.688782 742.609802,339.388855 742.767212,337.480347 
	C742.756531,336.617432 742.689575,336.363068 742.622620,336.108704 
	C742.415344,336.406494 742.208008,336.704254 742.000732,337.002045 
	C740.682617,333.909515 739.421021,330.791382 738.036072,327.729065 
	C733.353210,317.375000 724.157166,314.439728 713.959290,312.951538 
	C706.303223,311.834290 698.440063,311.448029 694.669006,302.404785 
	C689.852051,290.853119 698.345337,277.804932 710.753662,278.069763 
	C722.215088,278.314362 733.496399,278.960022 744.091614,284.002899 
	C754.316101,288.869324 763.286133,294.868835 770.625122,304.010101 
	C779.870056,315.525299 784.715698,328.602783 786.703003,342.585571 
	C788.139282,352.690979 786.899475,363.177277 786.846375,373.493652 
	C786.778687,386.645111 786.170959,399.821899 786.793823,412.940399 
	C787.335083,424.342346 789.142456,435.662140 798.458069,444.062408 
	C803.444580,448.558960 809.274658,451.340881 815.709045,452.118408 
	C822.439087,452.931641 829.072449,458.889893 831.466980,467.121124 
	C833.697388,474.788544 830.663147,483.121704 825.394592,487.047119 
	C822.703735,489.052002 819.615601,491.035095 816.419006,491.762848 
	C801.248901,495.216705 792.430054,504.877319 787.778809,519.986450 
	C786.936035,523.389526 786.109192,526.153564 786.090576,528.923035 
	C785.963257,547.894531 785.977356,566.867371 786.040039,585.839355 
	C786.045776,587.570312 786.713257,589.298950 787.155884,591.188354 
	C787.238342,591.348022 787.057983,591.658936 787.057983,591.658936 
	C786.792419,593.116455 786.159851,594.615540 786.319275,596.025024 
	C787.624146,607.559814 785.026001,618.296570 779.255676,628.154297 
	C775.777649,634.095947 771.065369,639.313477 767.565247,645.244507 
	C765.328003,649.035645 764.291321,653.535400 762.325684,657.665771 
	C761.688232,657.312561 761.441467,657.010986 761.194641,656.709412 
	C761.151611,656.854126 761.070007,656.999207 761.071045,657.143555 
	C761.139587,666.487549 761.214844,675.831482 761.289551,685.175415 
	C761.386475,685.890686 761.483459,686.605896 761.494385,687.929382 
	C761.297668,688.712708 761.187073,688.887878 761.076477,689.062988 
z"/>
<path fill="#4C524F" opacity="1.000000" stroke="none" 
	d="
M480.598206,687.948120 
	C479.738953,691.786011 479.663635,696.064331 477.818817,699.348572 
	C475.592865,703.311340 471.163391,703.802002 466.854706,702.294861 
	C461.894928,700.559937 461.439667,696.023926 461.121765,691.884827 
	C460.740540,686.921265 460.861023,681.877808 461.241913,676.905579 
	C462.035248,666.549011 459.898529,656.979309 452.222382,649.834412 
	C446.364990,644.382446 448.141327,638.640747 449.695221,632.729736 
	C452.931458,620.419067 456.381561,608.161255 459.957031,595.944153 
	C463.207825,584.836243 466.825653,573.836121 470.128326,562.742859 
	C474.178101,549.140076 477.958862,535.456787 482.060211,521.869995 
	C485.767517,509.588531 489.924927,497.442017 493.565338,485.141693 
	C497.873138,470.586487 501.663574,455.877655 506.009979,441.334564 
	C509.415558,429.939514 513.427795,418.727112 516.974731,407.372406 
	C519.157593,400.384460 520.885620,393.255768 522.970703,386.235687 
	C527.179810,372.064728 531.567139,357.946472 535.736206,343.763947 
	C538.302795,335.032623 540.504089,326.194092 543.053833,317.457520 
	C544.907898,311.104553 546.889282,304.776154 549.150391,298.559174 
	C550.510498,294.819550 557.525940,291.594330 561.692139,291.662109 
	C568.833679,291.778381 575.982117,291.473816 583.711060,291.374939 
	C584.535950,291.597626 584.781921,291.785492 585.032349,291.967468 
	C591.257263,292.443054 594.262085,300.883728 592.833435,306.603485 
	C590.513977,315.889954 587.770935,325.074554 585.052490,334.256470 
	C580.904785,348.265656 576.549255,362.213470 572.420105,376.228027 
	C566.325073,396.914795 560.404236,417.652863 554.311096,438.340240 
	C548.014465,459.718506 541.575317,481.054749 535.246338,502.423615 
	C530.998230,516.766724 526.770081,531.116394 522.646484,545.495667 
	C516.331848,567.515503 510.217468,589.593079 503.812622,611.586365 
	C500.728546,622.176514 497.527100,632.761841 493.661926,643.080811 
	C492.107239,647.231506 488.389374,650.522217 486.101562,654.462952 
	C484.096497,657.916626 482.714844,661.732178 480.678864,666.077393 
	C480.399384,673.827332 480.498810,680.887695 480.598206,687.948120 
z"/>
<path fill="#323835" opacity="1.000000" stroke="none" 
	d="
M742.283691,342.275452 
	C742.932251,343.632751 743.908447,345.275238 743.913818,346.920959 
	C743.992310,370.694855 743.940369,394.469116 743.870361,418.727356 
	C743.821106,419.211426 743.429810,419.128448 743.263062,418.618256 
	C743.083374,395.673157 743.094055,373.238159 743.015137,350.803497 
	C743.008423,348.892822 742.404419,346.984222 742.077820,345.074677 
	C742.105103,344.237183 742.132446,343.399658 742.283691,342.275452 
z"/>
<path fill="#323835" opacity="1.000000" stroke="none" 
	d="
M238.336334,549.878174 
	C238.706177,562.927490 238.739563,576.192505 238.635254,589.952637 
	C237.951111,589.353394 236.935669,588.261414 236.930435,587.164490 
	C236.875793,575.711060 236.962051,564.256531 237.086334,552.803162 
	C237.096161,551.896851 237.681839,550.996887 238.336334,549.878174 
z"/>
<path fill="#252926" opacity="1.000000" stroke="none" 
	d="
M787.073425,591.028687 
	C786.713257,589.298950 786.045776,587.570312 786.040039,585.839355 
	C785.977356,566.867371 785.963257,547.894531 786.090576,528.923035 
	C786.109192,526.153564 786.936035,523.389526 787.600220,520.317383 
	C787.857178,522.790344 787.902710,525.569031 787.585449,529.019897 
	C787.150391,532.015930 787.015320,534.339661 787.015869,536.663452 
	C787.020325,554.785217 787.050903,572.906921 787.073425,591.028687 
z"/>
<path fill="#4E5350" opacity="1.000000" stroke="none" 
	d="
M742.017090,345.534302 
	C742.404419,346.984222 743.008423,348.892822 743.015137,350.803497 
	C743.094055,373.238159 743.083374,395.673157 743.066711,418.580139 
	C742.637268,417.919250 741.890076,416.786743 741.888672,415.653290 
	C741.860168,392.433563 741.916687,369.213745 742.017090,345.534302 
z"/>
<path fill="#252926" opacity="1.000000" stroke="none" 
	d="
M324.307251,731.614990 
	C324.042694,732.184692 323.778137,732.754395 322.972961,734.488403 
	C322.972961,721.239807 322.921173,709.190186 322.991028,697.141235 
	C323.038208,689.001648 323.256744,680.863098 323.601410,672.372131 
	C324.157196,672.534607 324.510223,673.049011 324.554321,674.143921 
	C324.266022,693.687927 324.286652,712.651428 324.307251,731.614990 
z"/>
<path fill="#E3E2DD" opacity="1.000000" stroke="none" 
	d="
M787.155884,591.188354 
	C787.050903,572.906921 787.020325,554.785217 787.015869,536.663452 
	C787.015320,534.339661 787.150391,532.015930 787.556763,529.451355 
	C787.846252,549.892212 787.801636,570.573853 787.407471,591.457214 
	C787.057983,591.658936 787.238342,591.348022 787.155884,591.188354 
z"/>
<path fill="#323835" opacity="1.000000" stroke="none" 
	d="
M743.516357,529.714844 
	C743.683167,549.198547 743.683167,568.741272 743.683167,588.284058 
	C743.395752,588.285706 743.108276,588.287354 742.820862,588.289001 
	C742.820862,572.786926 742.820862,557.284790 742.774109,541.163086 
	C742.727356,540.543457 742.876892,540.488098 742.934204,540.111450 
	C742.671692,538.500610 742.351990,537.266296 742.032227,536.032043 
	C742.009399,535.569641 741.986572,535.107300 742.250427,534.044128 
	C742.704773,532.277405 742.872314,531.111450 743.039917,529.945496 
	C743.039917,529.945496 743.349548,529.773926 743.516357,529.714844 
z"/>
<path fill="#252926" opacity="1.000000" stroke="none" 
	d="
M723.922852,705.650146 
	C723.257874,704.860718 722.207764,703.609253 722.181335,702.336609 
	C722.006775,693.934875 722.051758,685.528687 722.029175,677.123901 
	C722.028748,676.964355 722.061951,676.671936 722.105103,676.667114 
	C722.346008,676.639771 722.594727,676.682007 722.937927,676.932983 
	C723.346558,683.044250 723.716431,688.920654 723.947266,694.802551 
	C724.082825,698.256653 723.997375,701.719482 723.922852,705.650146 
z"/>
<path fill="#E3E2DD" opacity="1.000000" stroke="none" 
	d="
M324.437561,731.550354 
	C324.286652,712.651428 324.266022,693.687927 324.566284,674.470703 
	C324.838013,693.087158 324.788849,711.957275 324.731934,731.279175 
	C324.724243,731.731018 324.567841,731.485718 324.437561,731.550354 
z"/>
<path fill="#252926" opacity="1.000000" stroke="none" 
	d="
M761.612915,684.964600 
	C761.214844,675.831482 761.139587,666.487549 761.071045,657.143555 
	C761.070007,656.999207 761.151611,656.854126 761.194641,656.709412 
	C761.441467,657.010986 761.688232,657.312561 761.981079,657.879517 
	C761.996887,667.014526 761.966614,675.884216 761.612915,684.964600 
z"/>
<path fill="#323835" opacity="1.000000" stroke="none" 
	d="
M269.446716,665.237793 
	C270.072632,666.973572 270.844788,668.976929 270.936035,671.010925 
	C271.386322,681.046814 271.656281,691.090820 272.002930,701.557617 
	C270.945251,699.619141 269.874542,697.255066 269.148407,694.193604 
	C269.363647,685.034302 269.234314,676.572449 269.104980,668.110596 
	C269.162994,667.246887 269.221008,666.383179 269.446716,665.237793 
z"/>
<path fill="#252926" opacity="1.000000" stroke="none" 
	d="
M480.949280,687.698242 
	C480.498810,680.887695 480.399384,673.827332 480.469635,666.405640 
	C480.859650,673.179077 481.079987,680.313721 480.949280,687.698242 
z"/>
<path fill="#252926" opacity="1.000000" stroke="none" 
	d="
M287.968262,692.699524 
	C287.471405,687.361877 287.301575,681.759583 287.203857,676.156128 
	C287.201935,676.046387 288.047089,675.921814 288.740448,675.891357 
	C288.756866,681.463989 288.529907,686.949402 287.968262,692.699524 
z"/>
<path fill="#252926" opacity="1.000000" stroke="none" 
	d="
M723.253601,740.797546 
	C723.646301,735.526794 724.385620,730.134277 725.230286,724.274902 
	C728.313843,728.349670 727.574768,735.533813 723.253601,740.797546 
z"/>
<path fill="#4D5350" opacity="1.000000" stroke="none" 
	d="
M269.072784,668.569092 
	C269.234314,676.572449 269.363647,685.034302 269.199646,693.813477 
	C268.951080,685.763062 268.995819,677.395325 269.072784,668.569092 
z"/>
<path fill="#252926" opacity="1.000000" stroke="none" 
	d="
M725.936279,720.320435 
	C725.001160,717.025696 724.089233,713.413269 723.298340,709.453857 
	C724.266052,712.738831 725.112732,716.370789 725.936279,720.320435 
z"/>
<path fill="#323835" opacity="1.000000" stroke="none" 
	d="
M744.499695,430.273346 
	C745.757507,433.704834 746.872253,437.440979 747.989136,441.594666 
	C746.779602,438.200775 745.568115,434.389374 744.499695,430.273346 
z"/>
<path fill="#252926" opacity="1.000000" stroke="none" 
	d="
M710.251343,744.071228 
	C713.094360,743.634033 716.248718,743.409546 719.796387,743.290527 
	C717.279541,746.932312 713.947205,745.890930 710.251343,744.071228 
z"/>
<path fill="#323835" opacity="1.000000" stroke="none" 
	d="
M743.656189,423.247406 
	C744.198303,424.152161 744.540771,425.325073 744.818665,426.882141 
	C744.321533,426.016022 743.888977,424.765808 743.656189,423.247406 
z"/>
<path fill="#252926" opacity="1.000000" stroke="none" 
	d="
M286.557129,698.982788 
	C286.557007,697.842957 286.864471,696.527039 287.462372,695.021851 
	C287.456787,696.157227 287.160767,697.481934 286.557129,698.982788 
z"/>
<path fill="#323835" opacity="1.000000" stroke="none" 
	d="
M272.126465,702.287231 
	C272.991669,702.759705 273.962402,703.537354 274.976135,704.643677 
	C274.090118,704.179077 273.161072,703.385742 272.126465,702.287231 
z"/>
<path fill="#323835" opacity="1.000000" stroke="none" 
	d="
M268.030701,660.248657 
	C268.655212,660.803345 269.260834,661.726685 269.818542,662.957153 
	C269.184387,662.381958 268.598114,661.499695 268.030701,660.248657 
z"/>
<path fill="#323835" opacity="1.000000" stroke="none" 
	d="
M754.092651,452.259735 
	C754.660522,452.777008 755.180054,453.627930 755.667725,454.826080 
	C755.105286,454.313354 754.574768,453.453400 754.092651,452.259735 
z"/>
<path fill="#323835" opacity="1.000000" stroke="none" 
	d="
M750.966064,448.415924 
	C751.566223,448.868073 752.238464,449.630280 752.912964,450.746552 
	C752.289490,450.309082 751.663757,449.517517 750.966064,448.415924 
z"/>
<path fill="#4E5350" opacity="1.000000" stroke="none" 
	d="
M742.006592,536.431152 
	C742.351990,537.266296 742.671692,538.500610 742.979370,540.137573 
	C742.638489,539.303650 742.309692,538.067017 742.006592,536.431152 
z"/>
<path fill="#4E5350" opacity="1.000000" stroke="none" 
	d="
M742.702148,530.112061 
	C742.872314,531.111450 742.704773,532.277405 742.290527,533.698730 
	C742.150757,532.728882 742.257629,531.503723 742.702148,530.112061 
z"/>
<path fill="#323835" opacity="1.000000" stroke="none" 
	d="
M237.306366,522.244507 
	C237.846176,522.545105 238.284134,523.085571 238.689957,523.993164 
	C238.173386,523.734985 237.688965,523.109680 237.306366,522.244507 
z"/>
<path fill="#323835" opacity="1.000000" stroke="none" 
	d="
M236.522278,516.188843 
	C237.015381,516.526306 237.373856,517.084778 237.706909,517.989868 
	C237.250214,517.694275 236.818909,517.052063 236.522278,516.188843 
z"/>
<path fill="#252926" opacity="1.000000" stroke="none" 
	d="
M706.465454,706.750916 
	C706.659485,707.359253 706.743958,707.980957 706.828430,708.602661 
	C706.708191,708.623230 706.587952,708.643799 706.467712,708.664368 
	C706.371155,708.234497 706.274536,707.804565 706.165527,707.112793 
	C706.153137,706.850952 706.355957,706.764282 706.465454,706.750916 
z"/>
<path fill="#323835" opacity="1.000000" stroke="none" 
	d="
M742.174683,337.090240 
	C742.208008,336.704254 742.415344,336.406494 742.622620,336.108704 
	C742.689575,336.363068 742.756531,336.617432 742.770996,337.087006 
	C742.718445,337.302216 742.348633,337.178436 742.174683,337.090240 
z"/>
<path fill="#252926" opacity="1.000000" stroke="none" 
	d="
M706.250671,681.149048 
	C706.275085,680.757446 706.433777,680.404480 706.592529,680.051514 
	C706.661377,680.302917 706.730225,680.554382 706.730957,681.012024 
	C706.662781,681.218262 706.384949,681.187683 706.250671,681.149048 
z"/>
<path fill="#252926" opacity="1.000000" stroke="none" 
	d="
M584.937256,291.728058 
	C584.781921,291.785492 584.535950,291.597626 584.107666,291.266479 
	C584.228027,291.248932 584.535095,291.368774 584.937256,291.728058 
z"/>
<path fill="#323835" opacity="1.000000" stroke="none" 
	d="
M750.503174,446.879517 
	C750.729187,446.952362 750.757019,447.182526 750.840515,447.756378 
	C750.699036,447.745667 750.502014,447.391235 750.503174,446.879517 
z"/>
<path fill="#252926" opacity="1.000000" stroke="none" 
	d="
M286.407379,702.095093 
	C286.343414,701.980286 286.461884,701.803772 286.709351,701.336609 
	C286.755493,701.375061 286.672668,701.704224 286.407379,702.095093 
z"/>
<path fill="#252926" opacity="1.000000" stroke="none" 
	d="
M760.263428,691.998535 
	C760.151001,691.860535 760.233643,691.665466 760.446106,691.179688 
	C760.536865,691.239807 760.497681,691.590637 760.263428,691.998535 
z"/>
<path fill="#252926" opacity="1.000000" stroke="none" 
	d="
M761.257202,689.016174 
	C761.187073,688.887878 761.297668,688.712708 761.582397,688.280212 
	C761.650330,688.338318 761.544189,688.653870 761.257202,689.016174 
z"/>
<path fill="#323835" opacity="1.000000" stroke="none" 
	d="
M755.954346,455.458893 
	C756.140747,455.364197 756.401306,455.543549 756.749390,455.984863 
	C756.551270,456.106140 756.281799,455.934845 755.954346,455.458893 
z"/>
<path fill="#323835" opacity="1.000000" stroke="none" 
	d="
M232.005615,507.280334 
	C232.171417,507.284088 232.363785,507.549561 232.736694,507.988220 
	C232.596054,507.973969 232.301056,507.767517 232.005615,507.280334 
z"/>
<path fill="#323835" opacity="1.000000" stroke="none" 
	d="
M232.921051,509.323212 
	C233.099823,509.311401 233.298706,509.585785 233.679443,510.038788 
	C233.554581,510.014740 233.247864,509.812073 232.921051,509.323212 
z"/>
<path fill="#323835" opacity="1.000000" stroke="none" 
	d="
M234.032104,511.273041 
	C234.206100,511.256531 234.410828,511.501862 234.794586,511.910156 
	C234.651733,511.908936 234.348129,511.729523 234.032104,511.273041 
z"/>
<path fill="#323835" opacity="1.000000" stroke="none" 
	d="
M235.353394,513.178223 
	C235.553146,513.142822 235.714493,513.353088 235.934479,513.764587 
	C235.694473,513.889160 235.468414,513.708496 235.353394,513.178223 
z"/>
<path fill="#323835" opacity="1.000000" stroke="none" 
	d="
M237.907791,547.156738 
	C238.074768,547.103027 238.091965,547.488098 238.087189,547.680176 
	C237.968552,547.651611 237.854675,547.430969 237.907791,547.156738 
z"/>
</svg>